# xmcd
#
# Track frame offsets:
#	150
#	18060
#	39547
#	52447
#	68582
#	80385
#	98850
#	110930
#	124292
#	137620
#	156285
#	174497
#
# Disc length: 2543 seconds
#
# Revision: 0
# Processed by: cddbd v1.4PL0 Copyright (c) Steve Scherf et al.
# Submitted via: EasyCDDAExtractor 5.0.5.1
#
DISCID=a409ed0c
DTITLE=John Marshall Family - Watchman
DYEAR=2002
DGENRE=Gospel
TTITLE0=Crimson River
TTITLE1=A Crown To Cast At His Feet
TTITLE2=I Will Not Forget Thee
TTITLE3=Come Away With Me
TTITLE4=Still Sweeter Every Day
TTITLE5=Break Up My Fallow Ground
TTITLE6=I'm Using My Bible For A Road Map
TTITLE7=He Lives On High
TTITLE8=He Included Me
TTITLE9=I Will Give My Life
TTITLE10=Watchman
TTITLE11=All Your Anxiety
EXTD=
EXTT0=
EXTT1=
EXTT2=
EXTT3=
EXTT4=
EXTT5=
EXTT6=
EXTT7=
EXTT8=
EXTT9=
EXTT10=
EXTT11=
PLAYORDER=
